{"accessors" : [{"bufferView" : 0, "byteOffset" : 0, "componentType" : 5123, "count" : 9216, "type" : "SCALAR", "max" : [1648], "min" : [0]}, {"bufferView" : 1, "byteOffset" : 0, "componentType" : 5126, "count" : 1649, "type" : "VEC3", "max" : [0.5, 0.5, 0.5], "min" : [-0.5, -0.5, -0.5], "name" : "POSITION"}, {"bufferView" : 1, "byteOffset" : 12, "componentType" : 5126, "count" : 1649, "type" : "VEC3", "max" : [1.0000044107437134, 1.0000044107437134, 1.0000044107437134], "min" : [-1.0000044107437134, -1.0000044107437134, -1.0000044107437134], "name" : "NORMAL"}, {"bufferView" : 1, "byteOffset" : 24, "componentType" : 5126, "count" : 1649, "type" : "VEC2", "max" : [0.9998999834060669, 0.9998999834060669], "min" : [9.999999747378752E-05, 0.00010001659393310547], "name" : "TEXCOORD_0"}], "asset" : {"generator" : "Aspose.3D 25.6.0", "version" : "2.0"}, "buffers" : [{"uri" : "buffer.bin", "byteLength" : 71208}], "bufferViews" : [{"buffer" : 0, "byteOffset" : 0, "byteLength" : 18432, "target" : 34963}, {"buffer" : 0, "byteOffset" : 18436, "byteLength" : 52768, "byteStride" : 32, "target" : 34962}], "materials" : [{"name" : "None", "pbrMetallicRoughness" : {"baseColorFactor" : [0, 0, 0, 1], "metallicFactor" : 0, "roughnessFactor" : 1}, "emissiveFactor" : [0, 0, 0], "alphaMode" : "OPAQUE", "doubleSided" : false}], "meshes" : [{"primitives" : [{"attributes" : {"POSITION" : 1, "NORMAL" : 2, "TEXCOORD_0" : 3}, "indices" : 0, "material" : 0, "mode" : 4}], "name" : "Cube_002"}], "nodes" : [{"matrix" : [1000, 0, 0, 0, 0, -0.00013435885648505064, 999.9999657714511, 0, 0, -999.9999657714511, -0.00013435885648505064, 0, 0, 0, 0, 1], "mesh" : 0, "name" : "Cube_001"}, {"children" : [0], "matrix" : [0.29999998211860657, 0, 0, 0, 0, 0.29999998211860657, 0, 0, 0, 0, 0.29999998211860657, 0, 0, 0, 0, 1], "name" : "Meshes"}], "scene" : 0, "scenes" : [{"nodes" : [1]}]}